<?xml version="1.0" encoding="UTF-8" standalone="no"?>
<svg
   version="1.1"
   width="1080"
   height="1080"
   viewBox="0 0 1080 1080"
   xml:space="preserve"
   id="svg43"
   sodipodi:docname="HomographyJSLogoWhite.svg"
   inkscape:version="1.1 (c68e22c387, 2021-05-23)"
   inkscape:export-filename="C:\Users\elcor\Downloads\HomographyJSLogo.png"
   inkscape:export-xdpi="96"
   inkscape:export-ydpi="96"
   xmlns:inkscape="http://www.inkscape.org/namespaces/inkscape"
   xmlns:sodipodi="http://sodipodi.sourceforge.net/DTD/sodipodi-0.dtd"
   xmlns="http://www.w3.org/2000/svg"
   xmlns:svg="http://www.w3.org/2000/svg"><sodipodi:namedview
   id="namedview45"
   pagecolor="#ffffff"
   bordercolor="#666666"
   borderopacity="1.0"
   inkscape:pageshadow="2"
   inkscape:pageopacity="0.0"
   inkscape:pagecheckerboard="0"
   showgrid="false"
   inkscape:zoom="0.52967536"
   inkscape:cx="339.8308"
   inkscape:cy="707.03686"
   inkscape:window-width="1920"
   inkscape:window-height="1017"
   inkscape:window-x="-8"
   inkscape:window-y="-8"
   inkscape:window-maximized="1"
   inkscape:current-layer="svg43" />
<desc
   id="desc28">Created with Fabric.js 4.2.0</desc>
<defs
   id="defs30"><rect
   x="531.32262"
   y="545.33993"
   width="87.441286"
   height="40.716935"
   id="rect181501" /><rect
   x="498.41851"
   y="519.18594"
   width="0.45465558"
   height="80.710557"
   id="rect150345" /><rect
   x="433.28427"
   y="427.14844"
   width="75.989943"
   height="41.062888"
   id="rect61517" /><rect
   x="414.40478"
   y="421.0126"
   width="51.918594"
   height="49.086671"
   id="rect4755" />
<filter
   inkscape:collect="always"
   style="color-interpolation-filters:sRGB"
   id="filter99255"
   x="-0.007188991"
   y="-0.010443768"
   width="1.014378"
   height="1.0208875"><feGaussianBlur
     inkscape:collect="always"
     stdDeviation="0.38752885"
     id="feGaussianBlur99257" /></filter><filter
   inkscape:collect="always"
   style="color-interpolation-filters:sRGB"
   id="filter160817"
   x="-0.1137208"
   y="-0.15098486"
   width="1.2274416"
   height="1.3019697"><feGaussianBlur
     inkscape:collect="always"
     stdDeviation="3.830832"
     id="feGaussianBlur160819" /></filter><filter
   inkscape:collect="always"
   style="color-interpolation-filters:sRGB"
   id="filter173387"
   x="-0.0035837697"
   y="-0.0016159133"
   width="1.0071675"
   height="1.0032318"><feGaussianBlur
     inkscape:collect="always"
     stdDeviation="0.23648275"
     id="feGaussianBlur173389" /></filter><filter
   inkscape:collect="always"
   style="color-interpolation-filters:sRGB"
   id="filter174347"
   x="-0.003547968"
   y="-0.0016141095"
   width="1.0070959"
   height="1.0032282"><feGaussianBlur
     inkscape:collect="always"
     stdDeviation="0.23613097"
     id="feGaussianBlur174349" /></filter></defs>
<g
   transform="matrix(1 0 0 1 540 540)"
   id="cadde8bd-c2b5-4d39-816c-80bbd7ba6342">
</g>
<g
   transform="matrix(1 0 0 1 540 540)"
   id="142c128f-5cbf-4863-8d27-927ac3a23840">

</g>


<text
   xml:space="preserve"
   id="text4753"
   style="font-style:normal;font-weight:normal;font-size:96px;line-height:1.25;font-family:sans-serif;white-space:pre;shape-inside:url(#rect4755);fill:#000000;fill-opacity:1;stroke:none"><tspan
     x="414.4043"
     y="557.68332"
     id="tspan209971"><tspan
       dx="0 43.640625"
       id="tspan209969">JS</tspan></tspan></text><path
   style="fill:#e6e6e6;stroke-width:0.667491;filter:url(#filter174347)"
   d="m 322.55206,553.9987 c 0.22265,-63.97074 0.44793,-128.802 0.50062,-144.06946 l 0.0958,-27.75903 59.60508,-31.48077 c 32.78279,-17.31443 60.00394,-31.48078 60.49143,-31.48078 0.4875,0 9.41531,5.15884 19.83957,11.4641 l 18.95322,11.46409 -18.53612,9.52196 c -10.19487,5.23708 -37.15911,19.11188 -59.92054,30.83288 l -41.38443,21.31091 v 57.56836 57.56835 l 53.06551,28.90044 53.06552,28.90045 0.46215,2.56303 c 0.51821,2.87396 0.71964,37.6063 0.21809,37.6063 -0.17655,0 -24.10923,-12.92282 -53.18375,-28.71736 -29.07452,-15.79456 -53.08804,-28.48522 -53.36339,-28.20149 -0.27535,0.28373 -0.27506,18.8385 6.3e-4,41.23281 0.2757,22.39432 0.30384,40.86712 0.0625,41.05068 -1.85388,1.41032 -39.99585,28.03465 -40.16258,28.03479 -0.11779,1e-4 -0.032,-52.33952 0.19064,-116.31026 z"
   id="path26328"
   transform="matrix(2.8534201,0,0,2.8394889,-909.70993,-865.56952)" /><path
   style="fill:#e6e6e6;stroke-width:0.667491;filter:url(#filter173387)"
   d="m 675.43684,657.02542 -19.96046,-14.06913 0.47736,-40.87579 c 0.26393,-22.59963 0.22147,-41.03394 -0.095,-41.2295 -0.31477,-0.19453 -24.37969,12.57536 -53.47761,28.37752 -29.09792,15.80218 -53.06461,28.57192 -53.25932,28.37722 -0.19471,-0.19472 -0.13536,-9.22115 0.1319,-20.05874 l 0.48591,-19.70471 52.47034,-28.52081 c 28.85869,-15.68646 52.99599,-28.96728 53.63845,-29.51295 1.0955,-0.93044 1.16811,-4.50972 1.16811,-57.57992 V 405.6408 l -1.8356,-1.26698 c -1.00958,-0.69684 -28.05587,-14.73598 -60.10287,-31.19809 -45.78725,-23.52029 -58.08242,-30.09943 -57.40421,-30.71693 1.44111,-1.3121 36.85871,-22.55485 37.57507,-22.53675 0.36712,0.009 27.40049,14.15616 60.07416,31.43752 l 59.40668,31.42065 0.43186,17.89287 c 0.58342,24.17196 1.17753,270.55334 0.65222,270.47978 -0.22913,-0.0321 -9.39879,-6.38943 -20.37704,-14.12745 z"
   id="path26367"
   transform="matrix(2.8534201,0,0,2.8394889,-909.70993,-865.56952)" /><path
   style="fill:#ffdd55;stroke-width:1.89997"
   d="m 485.47534,917.43909 -56.38148,-30.56666 -1.2259,-23.91779 c -0.67423,-13.15476 -1.22937,-38.98352 -1.23363,-57.39726 l -0.009,-33.47951 57.2662,31.11035 c 31.49639,17.11069 58.15107,31.11035 59.23257,31.11035 1.0815,0 27.08028,-13.64641 57.77503,-30.32531 30.69474,-16.67894 56.32219,-30.32535 56.94992,-30.32535 0.62773,0 1.11823,25.37378 1.09005,56.38615 l -0.0513,56.38615 -56.49243,30.32532 c -31.07092,16.67893 -57.40317,30.53568 -58.5162,30.79279 -1.11302,0.25698 -27.39532,-13.28756 -58.40513,-30.09923 z"
   id="path26443" /><path
   style="opacity:0.804989;fill:#ffeeaa;fill-opacity:1;stroke-width:0.667491;filter:url(#filter160817)"
   d="m 498.34284,632.15176 c -6.05748,-3.22724 -14.82728,-7.95292 -19.48844,-10.50149 l -8.47484,-4.63378 -0.34585,-4.00877 c -0.19022,-2.20483 -0.52481,-11.17847 -0.74352,-19.94144 l -0.39767,-15.93265 4.87967,2.64053 c 33.15498,17.94111 35.27531,19.0166 36.73754,18.63424 0.83417,-0.21812 6.62297,-3.13273 12.86401,-6.47691 6.24104,-3.34418 14.72651,-7.88232 18.85661,-10.08476 l 7.50927,-4.00444 -0.007,19.58327 -0.007,19.58327 -19.57426,10.51298 c -10.76585,5.78214 -19.84874,10.50953 -20.18421,10.50532 -0.33547,-0.004 -5.56607,-2.64813 -11.62354,-5.87537 z"
   id="path27483"
   transform="matrix(2.8534201,0,0,2.8394889,-909.70993,-865.56952)" /><text
   xml:space="preserve"
   id="text61515"
   style="fill:black;fill-opacity:1;line-height:1.25;stroke:none;font-family:sans-serif;font-style:normal;font-weight:normal;font-size:40px;white-space:pre;shape-inside:url(#rect61517)" /><text
   xml:space="preserve"
   style="font-style:normal;font-variant:normal;font-weight:500;font-stretch:normal;font-size:132.129px;line-height:1.25;font-family:Dubai;-inkscape-font-specification:'Dubai Medium';font-variant-ligatures:normal;font-variant-caps:normal;font-variant-numeric:normal;font-variant-east-asian:normal;letter-spacing:0.02px;opacity:0.908189;mix-blend-mode:normal;fill:#cccccc;fill-opacity:1;stroke:none;stroke-width:0.688172;filter:url(#filter99255)"
   x="403.0412"
   y="527.43811"
   id="text62821"
   transform="matrix(2.9761427,0,0,3.063369,-839.45941,-1031.4309)"><tspan
     sodipodi:role="line"
     id="tspan62819"
     x="403.0412"
     y="527.43811"
     style="font-style:normal;font-variant:normal;font-weight:500;font-stretch:normal;font-size:132.129px;font-family:Dubai;-inkscape-font-specification:'Dubai Medium';font-variant-ligatures:normal;font-variant-caps:normal;font-variant-numeric:normal;font-variant-east-asian:normal;opacity:0.808933;fill:#cccccc;fill-opacity:1;stroke-width:0.688172">JS</tspan></text><text
   xml:space="preserve"
   id="text150343"
   style="fill:black;fill-opacity:1;line-height:1.25;stroke:none;font-family:sans-serif;font-style:normal;font-weight:normal;font-size:40px;white-space:pre;shape-inside:url(#rect150345)" /><text
   xml:space="preserve"
   id="text181499"
   style="line-height:1.25;font-family:Dubai;font-weight:bold;font-size:40px;-inkscape-font-specification:'Dubai Bold';white-space:pre;shape-inside:url(#rect181501)" /></svg>
