<?xml version="1.0" encoding="UTF-8"?>
<svg width="1080" height="1080" version="1.1" viewBox="0 0 1080 1080" xml:space="preserve" xmlns="http://www.w3.org/2000/svg">
<desc>Created with Fabric.js 4.2.0</desc>
<defs>
<filter id="filter99255" x="-.007189" y="-.010444" width="1.0144" height="1.0209" color-interpolation-filters="sRGB"><feGaussianBlur stdDeviation="0.38752885"/></filter><filter id="filter160817" x="-.11372" y="-.15098" width="1.2274" height="1.302" color-interpolation-filters="sRGB"><feGaussianBlur stdDeviation="3.830832"/></filter><filter id="filter173387" x="-.0035838" y="-.0016159" width="1.0072" height="1.0032" color-interpolation-filters="sRGB"><feGaussianBlur stdDeviation="0.23648275"/></filter><filter id="filter174347" x="-.003548" y="-.0016141" width="1.0071" height="1.0032" color-interpolation-filters="sRGB"><feGaussianBlur stdDeviation="0.23613097"/></filter></defs>




<text fill="#000000" font-family="sans-serif" font-size="96px" style="line-height:1.25;shape-inside:url(#rect4755);white-space:pre" xml:space="preserve"/><path transform="matrix(2.8534 0 0 2.8395 -909.71 -865.57)" d="m322.55 554c0.22265-63.971 0.44793-128.8 0.50062-144.07l0.0958-27.759 59.605-31.481c32.783-17.314 60.004-31.481 60.491-31.481 0.4875 0 9.4153 5.1588 19.84 11.464l18.953 11.464-18.536 9.522c-10.195 5.2371-37.159 19.112-59.921 30.833l-41.384 21.311v115.14l106.13 57.801 0.46215 2.563c0.51821 2.874 0.71964 37.606 0.21809 37.606-0.17655 0-24.109-12.923-53.184-28.717-29.075-15.795-53.088-28.485-53.363-28.201s-0.27506 18.838 6.3e-4 41.233c0.2757 22.394 0.30384 40.867 0.0625 41.051-1.8539 1.4103-39.996 28.035-40.163 28.035-0.11779 1e-4 -0.032-52.34 0.19064-116.31z" fill="#333" filter="url(#filter174347)" stroke-width=".66749"/><path transform="matrix(2.8534 0 0 2.8395 -909.71 -865.57)" d="m675.44 657.03-19.96-14.069 0.47736-40.876c0.26393-22.6 0.22147-41.034-0.095-41.23-0.31477-0.19453-24.38 12.575-53.478 28.378-29.098 15.802-53.065 28.572-53.259 28.377-0.19471-0.19472-0.13536-9.2212 0.1319-20.059l0.48591-19.705 52.47-28.521c28.859-15.686 52.996-28.967 53.638-29.513 1.0955-0.93044 1.1681-4.5097 1.1681-57.58v-56.588l-1.8356-1.267c-1.0096-0.69684-28.056-14.736-60.103-31.198-45.787-23.52-58.082-30.099-57.404-30.717 1.4411-1.3121 36.859-22.555 37.575-22.537 0.36712 9e-3 27.4 14.156 60.074 31.438l59.407 31.421 0.43186 17.893c0.58342 24.172 1.1775 270.55 0.65222 270.48-0.22913-0.0321-9.3988-6.3894-20.377-14.127z" fill="#333" filter="url(#filter173387)" stroke-width=".66749"/><path d="m485.48 917.44-56.381-30.567-1.2259-23.918c-0.67423-13.155-1.2294-38.984-1.2336-57.397l-9e-3 -33.48 57.266 31.11c31.496 17.111 58.151 31.11 59.233 31.11s27.08-13.646 57.775-30.325c30.695-16.679 56.322-30.325 56.95-30.325s1.1182 25.374 1.09 56.386l-0.0513 56.386-56.492 30.325c-31.071 16.679-57.403 30.536-58.516 30.793-1.113 0.25698-27.395-13.288-58.405-30.099z" fill="#fd5" stroke-width="1.9"/><g><path transform="matrix(2.8534 0 0 2.8395 -909.71 -865.57)" d="m498.34 632.15c-6.0575-3.2272-14.827-7.9529-19.488-10.501l-8.4748-4.6338-0.34585-4.0088c-0.19022-2.2048-0.52481-11.178-0.74352-19.941l-0.39767-15.933 4.8797 2.6405c33.155 17.941 35.275 19.017 36.738 18.634 0.83417-0.21812 6.623-3.1327 12.864-6.4769s14.727-7.8823 18.857-10.085l7.5093-4.0044-0.014 39.167-19.574 10.513c-10.766 5.7821-19.849 10.51-20.184 10.505-0.33547-4e-3 -5.5661-2.6481-11.624-5.8754z" fill="#d48000" filter="url(#filter160817)" opacity=".80499" stroke-width=".66749"/><g><text fill="black" font-family="sans-serif" font-size="40px" style="line-height:1.25;shape-inside:url(#rect61517);white-space:pre" xml:space="preserve"/><text transform="matrix(2.9761 0 0 3.0634 -839.46 -1031.4)" x="403.0412" y="527.43811" fill="#171717" filter="url(#filter99255)" font-family="Dubai" font-size="132.13px" font-weight="500" letter-spacing=".02px" opacity=".90819" stroke-width=".68817" style="font-variant-caps:normal;font-variant-east-asian:normal;font-variant-ligatures:normal;font-variant-numeric:normal;line-height:1.25;mix-blend-mode:normal" xml:space="preserve"><tspan x="403.0412" y="527.43811" fill="#171717" font-family="Dubai" font-size="132.13px" font-weight="500" opacity=".80893" stroke-width=".68817" style="font-variant-caps:normal;font-variant-east-asian:normal;font-variant-ligatures:normal;font-variant-numeric:normal">JS</tspan></text><text fill="black" font-family="sans-serif" font-size="40px" style="line-height:1.25;shape-inside:url(#rect150345);white-space:pre" xml:space="preserve"/></g></g><text font-family="Dubai" font-size="40px" font-weight="bold" style="line-height:1.25;shape-inside:url(#rect181501);white-space:pre" xml:space="preserve"/></svg>
